<?xml version="1.0" encoding="utf-8"?>
<!-- Generator: Adobe Illustrator 24.2.0, SVG Export Plug-In . SVG Version: 6.00 Build 0)  -->
<svg version="1.1" id="Layer_1" xmlns="http://www.w3.org/2000/svg" xmlns:xlink="http://www.w3.org/1999/xlink" x="0px" y="0px"
	 viewBox="0 0 1920 1080" style="enable-background:new 0 0 1920 1080;" xml:space="preserve">
<style type="text/css">
	.st0{fill:none;stroke:#000000;stroke-width:5;stroke-miterlimit:10;}
</style>
<path class="st0" d="M1036.5,1109.5c40.98-13.06,82.52-24.39,124.49-33.79c35.95-8.05,72.22-14.69,108.71-19.79
	c30.33-4.24,60.81-7.41,91.37-9.48c35.65-2.41,71.39-2.75,107.06-4.72c29.19-1.61,59.94-3.86,87.08-15.68
	c25.43-11.07,42.94-31.59,51.67-57.8c8.81-26.48,11.12-60.66-3.52-85.61c-14.26-24.31-49.66-28.35-72.14-12.94
	c-12.23,8.38-16.7,22.7-15.49,37.05c1.03,12.25,6.33,27.09,18.35,32.55c16.31,7.4,37.64-1.66,52.24-9.06
	c24.61-12.47,46.42-30.74,64.68-51.31c20.8-23.44,37.51-51.03,46.33-81.22c10.06-34.43,8.83-71.11,0.05-105.67
	c-7.19-28.31-19.12-55.71-35.04-80.21c-4.97-7.65-10.33-15.26-16.72-21.8c-2.56-2.62-7.76-8.72-9.87-2.83
	c-1.16,3.26-2.03,12.75-7.65,9.69c-4.69-2.56-5.91-10.53-11.05-12.2c-7.81-2.53-6.29,25.95-14.58,13.32
	c-1.47-2.25-2.44-4.91-4.1-7.03c-1.88-2.41-2.24-1.12-2.78,1.31c-0.62,2.78-2.59,8.76-6.08,9.22c-2.37,0.31-4.11-2.33-5.28-3.98
	c-2.03-2.84-6.25-12.05-10.76-7.92c-2.01,1.83-2.31,5.55-5.04,6.65c-2.73,1.11-4.98-1.5-6.55-3.36c-3.18-3.77-7.37-10.13-10.36-2.55
	c-0.89,2.25-1.59,5.93-4.54,6.25c-2.68,0.29-5.09-2.73-6.72-4.43c-3.41-3.56-7.69-7.51-9.17-0.32c-0.39,1.9-0.1,12.85-2.97,12.64
	c-1.55-0.11-2.85-3.82-3.4-4.89c-1.24-2.39-2.49-5.38-4.72-7.03c-5.11-3.81-9.07,4.2-11.36,7.63c-2.93,4.4-6.67,7.86-9.62,1.39
	c-1.35-2.96-3.66-12.17-7.01-5.44c-1.31,2.63-2.68,12.23-7.11,9.75c-5.48-3.06-7.47-13.46-4.84-18.65
	c4.71-9.31,20.77-9.6,29.49-11.94c14.01-3.75,25.43-12.05,25.97-27.81c1.83,3.96,5.86,11.36,10.39,12.77C1547,560,1549,560,1550,559
	c2-3,1-9,5-11c1,0,2,0,3,1c6,4,4,14,12,14c2-5,3-11,5-16c0,0,2,0,3,0c3,5,4,11,7,16c2,3,5,0,6-2c1-4,1-7,4-10c0,0,1,0,2,0
	c5,3,4,13,10,11c5-1,3-9,9-10c4,0,4,5,7,7c2,1,4,3,6,2s1-4,1-6c-3-13-7-25-15-36s-20-17-33-20l-1,1c3,4,7,5,11,7c1,1,3,2,3,4
	c-1,2-3,3-5,3c-8,0-16-3-23-8c-1,0-2,0-3,0c2,5,4,12-3,15c-5,1-11,3-15-1c5-5,9-13,2-19c-2-1-5-1-7-1c-5,1-3,7-5,10c-1,2-1,5-5,6
	c-4,0-7-2-10-3c-4-2-5,3-6,6c-1,16,1,31,3.5,46.5c-20.91,0.24-0.93-6.46,0,0c-21.5,1.5-43.5-1.5-66,1c9.62,0.7,1.08-0.1,0,0
	c16.5,0.5,32.5,0.5,48,0c-1.29-13.63-6.29,0.03,0,0C1498,550,1498,533,1496,515c0-1-2-2-3-2c-11,2-22,0-33,0c-2,0-3,1-5.5,0.5
	c0.74,10.13,6.95,0,0,0C1457,555,1461,596,1463,637c60-1,119-3,179-6c13-4,17-18,15-30c-4-37-9-72-11-109c-1-6-6-10-11-10
	c-62-1-125,5-187,7c-8,0-11,8-10,14c0,4,0,7,0,11c4,16,3,32,5,48c1,16,3,33,4,49c0,3-1,7,1,10c3,3,5,7,10,8s11,1,16,1
	c57-3,113-3,170-4c9,38,13,83-13,117c-18,22-46,23-72,19c-32-5-62-13-94-9c-17,3-32,12-43,26c-9,13-12,27-14,42c-2,21-1,42-8,62
	c-1,2-2,4-3,7c-10,23-31,39-54,46c-61,20-121,7-183-7c-1,0-3-2-4-2c-13-2-24-6-36-10c-30-11-58-23-87-36c-18-8-36-15-55-20
	c-11-3-22-5-33-4c-12,2-21,13-21,25c-1,10-12,16-21,14c-7-2-15-8-14-16c2-10,9-20,21-19c35,26,63,61,91.5,92.5
	c-7.36-0.31-6.66-7.81,0,0C994,951,985,955,977,952c1-9-2-17-1.5-26.5c7.35-0.26,0.25,3.36,0,0C985,923,993,926,1002,924
	c1,0,2,1,2,1c0,8,1,17,2,25c0,3,0,7,0,10c2,12,3,25,3.5,37.5c-5.33,0-0.6-7.34,0,0C999,998,989,999,978,998c-1-1-2-3-1-5
	c3-6-1-13,0-19c0-1,1-2,2-2c6,1,12,1,18,0c2,0,6,0,6,2c1,9,2,17,0,26c-17,4-34,9-50.5,14.5c0.11-7.34,0.22-0.06,0,0
	c1.5-21.5-1.5-42.5,1-65c-8.93,0-0.04,2.69,0,0c-25.5,0.5-51.5,0.5-77.95,0c8.67,0,2.73,0,0,0C894,949,912,951,930,949c1,0,3,1,3,2
	c0,21,0,42,0,63c-17,3-34,0-51,1c-3-30-3-60-6-90c0-1,1-3,0.5-4.5c16.64-0.58,0.02,0.37,0,0c19.5-1.5,38.5-1.5,57-2
	c0,3.95-2.36,0.08,0,0C934,924,934,928,934,933c0,1-1,2-2,2c-16,0-33,0-49,0c-3-4,1-10-1-15c-4-7-14-9-20.5-14.5
	c0.11,12.65,3.28,2.14,0,0c1.5,37.5-1.5,75.5,1,112c-6.99-13.99-0.04-4.6,0,0c-8.5-14.5-15.5-31.5-24-48c0.58,8.75,1.01,2.01,0,0
	c0.5,10.5,0.5,20.5,2,30c-5.52-0.18-0.08-1.25,0,0C831,997,820,1001,810,998c-1-24,1-48-1-72c0-1,1-2,2-2c10,0,19-1,29,0
	c-1,9,1,19,0,28c0,1,1,1,0.5,1.5c-5.87,0-0.02-0.45,0,0C831,954,822,954,812,954c-2,0-3-2-4-3c-9-16-20-28-30.5-42.5
	c13.24-0.93,2.91,3.97,0,0C806,906,834,904,862,903c3-6,5-12,7.5-18.5c-6.67-1-13.33-2-20-3c28.5-29.5,56.5-57.5,86-86
	c-8.16-3.79-0.03,0.03,0,0c-9.5-3.5-17.5-9.5-28-13c0,8.5,1.17,0.55,0,0C909,798,906,813,908,828c4,2,6,5,9,8c8,7,16,12,23,19
	c5,4,11,8,16,12c8,8,18,14,25.5,21.5c-8.75-0.58-0.05-0.04,0,0c-9.5-0.5-19.5-1.5-30-2c0,3.85,1.25,0.08,0,0
	C950,890,951,894,952,898c0,1-1,2-1,3s1,2,1,2c25,0,50,1,75-1c1,0,2,2,2,3c1,38,4,77,4,115c0,0,1,1,0.5,0.5c-6.28,0-0.01-0.16,0,0
	C951,1021,869,1021,786,1021c-3-36,0-76-1-113c-18-6-36-8-54-11c-31-4-61-6-91-4c-12,1-24,2-37,4c-15,3-30,6-45,10
	c-28,9-53,19-81,28c-45,13-90,13-136,3c-2-1-5-2-8-2c-15-4-28-9-40-19c-1-2-3-3-5-5c-5-8-10-15-8-25c3-18,13-31,23-46
	c8-13,15-26,21-40c3-8,6-17,9-25c5-19,9-38,10-57c1-28,3-56-8-83c-7-19-30-24-49-22c-11-8-7-24-6.5-36.5c7.08,1.24-0.89,6.57,0,0
	C294,579,302,566,305,554c4-17,5-34-1-51c-4-9-10-17-19-21c-12-5-24-5-36-4c-11,0-23,4-30,14c-15,22-15,49-5,72c6,12,20,18,33,16
	c2,8,3,16,2,24c-1,5-4,10-7,13c-5,3-12,3-18,4c-17,3-26,22-26,38c-21,4-44-6-53-26c-16-39-6-82,4-122c11-13,22-26,37-36
	c5-3,10-6,15-9c22-12,47-17,72-16c14,1,28,4,41,9c7,3,13,6,19,10c1,1,2,2,3,3c42,27,58,77,51,124c-7,38-30,70-63,90
	c-28,16-59,20-89,11c-28-9-52-25-68-51c-1-1-2-2-3-3c-8-14-11-28-13-44c-1-10,1-20,2-30c5-28,16-50,32-74c18-26,39-44,67-55
	c6-3,11-6,17-8c2-1,3,0,5-1c3-1,5-3,8-4c34-10,66-25,91-51c13-15,23-31,31-49c3-8,6-15,9-23c7-24,13-50,3-74c-4-9-13-15-23-16
	c-18-1-38,5-46,22c-8,18-1,39,15,50c15,9,32,9,48,8c20-2,39-7,60-12c17-3,32-5,48-8c96-14,189-23,284-28c100-5,199-9,299,1
	c3,0,7,0,10,0c57,8,118,10,164,49c9,9,14,21,13,33c0,15-6,28-14,41c-26,41-58,81-55,131c2,27,14,51,32,72c14,16,29,29,43,45
	c6,8,11,16,15,25c5,16,3,32-5,46c-31,50-97,73-150,46c-23-12-42-27-65-41c-28-17-56-27-88-35c-67-16-131-14-198-4
	c-78,13-151,30-222,62c-15,7-30,13-46,13c-12,0-22-4-32-10c-19-13-30-32-37-53c-20-60-18-123-9-186c7-52,13-103,33-151c1-2,0-3,1-5
	c14-31,32-57,58-79c2-1,5-3,7-5c1-1,3-1,4-2s2-2,3-3c19-12,39-19,61-20c78-7,156-1,234-4c81-4,161-12,242-19c40-3,80-9,120,1
	c8,3,16,6,22,12c5,5,8,10,10,17c1,5,1,11,0,16c-11,41-12,84,12,121c8,12,15,24,19,37c14,39,8,79,4,119c-5,36-11,70-17,107
	c-3,18-8,34-13,52c-2,5-5,9-8,14c-6,8-14,13-23,16c-8,3-16,5-25,6c-20,2-39,3-58,4c-74,2-147,4-221,6c-22,0-45,0-67-2c-5-1-9-1-14-2
	c-6,0-13,0-19-1c-87-15-171-11-256-11c-10,0-20,1-30-3c-2-1-4-2-7-3c-15-7-27-18-33-34c-5-16-7-32-8-49c-1-74,3-149,4-223
	c0-29-5-59-5-88c1-13,2-26,6-38c5-15,13-28,27-37c45-29,97-23,147-12c1,0,3,2,4,2c3,1,7,1,10,2c16,4,30,11,46,13c48,7,94,10,142,8
	c44-2,86-11,130-16c5-1,9-2,14-2c3,0,7-2,10-2c8,0,16-1,24-2c25-1,51-1,76,1c79,7,157,24,230,55c12,6,24,10,36,14c16,4,30,7,46,10
	c13,1,25,3,37,4c13,1,25,1,38,2c30,1,61-1,91-3c40-3,78-10,117-20c27-8,52-16,76-32c10-7,18-15,25-25c9-15,10-32,2-47
	c-17-37-40-72-69-102c-4-4-9-7-13-11c-19-15-40-26-65-23c-21,3-39,15-51,31c-4,25-4,58,21,70c22,11,47,3,69-6c25-11,49-23,70-41
	c5-6,11-12,13-20c1-7,0-14-5-19c-7-7-15-12-23-16c-41-18-84-23-128-29c-85.96-11.72-116.93,3.81-189.23-9.85
	c-9.51-1.8-17.27-3.51-22.27-4.65"/>
</svg>
