<?xml version="1.0" encoding="utf-8"?>
<!-- Generator: Adobe Illustrator 24.2.0, SVG Export Plug-In . SVG Version: 6.00 Build 0)  -->
<svg version="1.1" id="Layer_1" xmlns="http://www.w3.org/2000/svg" xmlns:xlink="http://www.w3.org/1999/xlink" x="0px" y="0px"
	 viewBox="0 0 1920 1080" style="enable-background:new 0 0 1920 1080;" xml:space="preserve">
<style type="text/css">
	.st0{fill:none;stroke:#000000;stroke-width:5;stroke-miterlimit:10;}
	.st1{fill:#FFFFFF;stroke:#000000;stroke-width:5;stroke-miterlimit:10;}
	.st2{fill:#FFFFFF;}
</style>
<path class="st0" d="M743.61,143.61c-34.37-13.7-68.74-27.41-103.11-41.11c-0.46-0.05-3.69-0.33-6,2c-2.2,2.22-2.65,5.89-1,9
	c35.94,86.91,82.79,200.42,88,214c0.47,1.22,4.19,10.92,4,11c-0.09,0.04-0.95-2.02-1-2c-0.03,0.01,0.25,0.97,1,2
	c0.07,0.09,0.11,0.16,0.15,0.2c0.23,0.28,0.54,0.52,1.85,1.8c0,0,0,0,2,2c1.33,1.33,2.67,2.67,4,4
	c48.78,49.35,97.55,98.7,146.33,148.05c0,0,8.4,8.8,5.6-10.75L758.54,157.3C758.54,157.3,752.94,144.59,743.61,143.61z"/>
<path class="st0" d="M887.5,494.5c9.41,0.53,20.47,0.45,32.75-1c8.17-0.97,15.62-2.39,22.25-4c98-17,196-34,294-51c0,0,2,0,3-4v-10
	l-3-3l-22-16l-201-126c0,0-4-7-10-2l-182.36,28.3l19.36,47.55l1.89,4.65l20.54,50.45l3.25,7.98l5.31,1.06l13-3l-7-7l-12,2l9.98,9.42
	l8.02,7.58l11-1l-7-9l18,16l-11,4l-8-7l17,18l14-3l-7-10l5.84,5.84l13.16,13.16l-14,3l-8-8l14-7l11,13l23-4l-15-15l-21,4l-10-9l23-2
	l5,4l-12.86-10.72l-5.14-4.28l-22,3l-11-9l22-3l9,5l-19-13l-20,2l-10-8l22-1l6,5l-11.14-10.35l-2.86-2.65h-23l4,7l-11-16h20l7,7
	l-21-17l-9,3l-4-8l7-2l3,3l-13-15l-7-9l12-2l-6-12l-10,3l13,19l14-1l-7-8l18,13l-18,2l7,10l22-3l-6-8l14,17l-19,1l9,9l20-3l-4-5
	l14,12l-22,3l11,8l18-1l-3-7l16,13l-21,5l-7-6l17,13l20-2l-5-9l16,16l-21,5l-6-7l17,16l21-3l-8-9l20,18l-24,4l-6-8l18,18l50-8l-9-8
	l-23,4l6,6l-15-17l20-3l9,8l-18-15l-23,1l-10-8l23-2l7,6l-19-15l-19,2l-10-9l16-4l11,8l-19-13l-18,1l5,6l-17-14l21-1l7,5l-19-13
	l-16,2h-2l-9-8l17-2l9,4l-18-12l-16,3l-8-8l14-2l-10-9l-14,2l-8-10l13-2l7,1l-1,5l10,4l6-1l-4,3l9,8l12-4l-4-7l17,13l-12,6l-8-7
	l17,14l12-4l10,8l-18,3l15,8l18-2l8,8l-15,5l10,5l16,1l11,6l-18,3l11,10l20-5l13,11l-22,2l26,23l21-4l-19-18l15-3l9,9l-9,2l20-5
	l13,8l-12,3l-8-6l7-8l-9-6l-9,1l-20,3l-15-16l12-4l3,10l-6,1l-25-18l21-5l8,6l-63-46l-17,5l47,38l-59-47l19-6l7,7l-17-15l-19,7"/>
<path class="st1" d="M907.5,269.5C896,277,889,289,877,298c-1,1-3,4,1,6c4,1,7-2,10-5c6-9,13-16,18-25c2-2,4-5,7-6c3,0,6-1,8.5-1.5
	c-7.03,13-3.2,0.87,0,0C911,283,903,300,893,318c-1,3-2,6-3,8c-3,3-7,6-11,1c0-12,6-22,13-31c11-12,23-20,34-32c2-2,4-3,6-4
	c9-3,17-7,26-11c4-2,8-1,11.5-0.5c-13.55,12.2-3.33-1.96,0,0C945,272,918,296,904,329c-1,1-3,3-5,5c-1,1-4,2-5,1c-2-2-2-6-2.5-8.5
	c7.84,16.84,0,2.95,0,0c7.84,16.84,27.9,3.55,35.67-6.13c6.71-8.36,14.26-16.32,22.84-22.78c7.62-5.74,15.19-8.4,24.41-9.89
	c8.7-1.4,17.39-2.81,26.09-4.21c-9.46,1.16-19.18,3.2-27.98,6.92C968,293,962,295,960,301c-3,9,6,16,14,17c9,1,17-2,25-3
	c7,0,14,3,21,3c12,0,23-7,31-17c5-7,11-13,17-19c5-6,10-13,8-21c-4-12-19-18-31-15c-12,2-23,9-35,9c-13-6-28-8-42.38-9.78"/>
<g>
	<g>
		<path class="st2" d="M928.44,274.59c-5.59,6.82-11.7,13.18-18.3,19.03c0.85,0.35,1.71,0.71,2.56,1.06
			c-0.01-1.89,0.86-3.68,2.44-4.74c1.59-1.08,0.09-3.68-1.51-2.59c-2.46,1.66-3.95,4.35-3.93,7.34c0.01,1.35,1.61,1.91,2.56,1.06
			c6.59-5.85,12.71-12.21,18.3-19.03c0.51-0.63,0.61-1.51,0-2.12C930.03,274.06,928.95,273.96,928.44,274.59L928.44,274.59z"/>
	</g>
</g>
<g>
	<g>
		<path class="st2" d="M960.28,250.44c-8.2,2.51-16.18,5.76-23.78,9.73c-3.55,1.85-7.1,3.85-10.02,6.64
			c-2.97,2.83-5.13,6.38-7.24,9.87c0.91,0.39,1.83,0.77,2.74,1.16c1.22-4.96,5.15-8.84,10.12-10.01c-0.49-0.84-0.97-1.67-1.46-2.51
			c-3.97,3.3-7.12,7.52-9.15,12.27c0.68-0.18,1.37-0.36,2.05-0.54c-0.8-0.51-1.3-1.47-1.14-2.43c0.21-1.31-1.43-2.73-2.51-1.46
			c-2.97,3.5-6.14,7.85-4.72,12.68c0.55,1.85,3.44,1.06,2.89-0.8c-1.09-3.68,1.71-7.13,3.94-9.76c-0.84-0.49-1.67-0.97-2.51-1.46
			c-0.38,2.35,0.5,4.51,2.52,5.82c0.62,0.4,1.74,0.19,2.05-0.54c1.94-4.55,4.87-8.5,8.68-11.67c1.22-1.02-0.11-2.82-1.46-2.51
			c-5.94,1.4-10.76,6.18-12.21,12.1c-0.4,1.64,1.85,2.63,2.74,1.16c1.98-3.28,3.98-6.6,6.77-9.26c2.84-2.71,6.36-4.59,9.82-6.38
			c7.25-3.76,14.84-6.82,22.65-9.21C962.92,252.77,962.14,249.87,960.28,250.44L960.28,250.44z"/>
	</g>
</g>
<g>
	<g>
		<path class="st2" d="M959.42,250.79c-2.92,1.96-6.15,3.35-9.31,4.86c-3.18,1.52-6.14,3.27-8.86,5.53
			c-2.71,2.25-5.16,4.79-7.8,7.13c-2.58,2.29-5.28,4.44-7.99,6.59c-5.38,4.27-10.82,8.56-15.29,13.82
			c-4.32,5.09-7.65,10.9-10.11,17.1c-2.79,7.03-4.37,14.47-5.08,21.99c-0.16,1.69,2.57,2.03,2.95,0.4c0.21-0.88,0.07-1.65-0.44-2.4
			c-0.39-0.58-1.12-1.02-1.41-1.64c-0.4-0.88,0.4-2.17,0.75-2.94c0.48-1.05,0.98-2.09,1.5-3.12c2.1-4.2,4.48-8.25,7.11-12.14
			c1.08-1.61-1.52-3.11-2.59-1.51c-2.71,4.02-5.16,8.21-7.31,12.56c-0.94,1.9-2.24,4-2.5,6.14c-0.12,1,0.06,1.94,0.62,2.79
			c0.24,0.37,0.56,0.69,0.86,1.01c0.15,0.15,0.29,0.3,0.43,0.46c0.11,0.21,0.14,0.22,0.09,0.02c0.98,0.13,1.96,0.27,2.95,0.4
			c1.21-12.84,5.31-25.86,13.52-36c4.15-5.13,9.26-9.34,14.4-13.44c2.64-2.11,5.31-4.19,7.88-6.38c2.62-2.22,5.05-4.64,7.59-6.94
			c2.88-2.62,5.96-4.71,9.46-6.42c3.42-1.66,6.94-3.11,10.1-5.24C962.53,252.31,961.03,249.71,959.42,250.79L959.42,250.79z"/>
	</g>
</g>
<g>
	<g>
		<path class="st2" d="M893.18,325.58c-0.11,2.09,1.39,3.89,3.25,4.62c0.88,0.35,1.95,0.41,2.85,0.1c0.69-0.23,1.31-0.63,1.7-1.26
			c0.36-0.58,0.48-1.38,0.25-2.03c-0.32-0.87-1.09-1.51-2.05-1.48c-0.87,0.03-1.84,0.63-1.99,1.55c0.73-0.3,1.47-0.6,2.2-0.9
			c-0.01-0.01-0.1-0.06-0.11-0.06c0.02-0.01,0.32,0.29,0.15,0.1c-0.07-0.07,0.14,0.26,0.13,0.16c0-0.03-0.05-0.11-0.07-0.14
			c0.05,0.12,0.1,0.24,0.15,0.36c-0.03-0.08-0.05-0.15-0.06-0.23c0.02,0.13,0.04,0.27,0.05,0.4c-0.01-0.1-0.01-0.2,0-0.3
			c-0.02,0.13-0.04,0.27-0.05,0.4c0.01-0.06,0.03-0.12,0.05-0.17c-0.05,0.12-0.1,0.24-0.15,0.36c0.03-0.08,0.07-0.14,0.12-0.21
			c0.22-0.3,0.24-0.82,0.15-1.16c-0.1-0.35-0.36-0.72-0.69-0.9c-0.35-0.18-0.77-0.28-1.16-0.15c-0.39,0.13-0.65,0.36-0.9,0.69
			c-0.79,1.09-0.3,2.85,0.87,3.45c0.44,0.23,0.88,0.27,1.33,0.08c0.39-0.16,0.8-0.53,0.87-0.97c0-0.04,0.01-0.07,0.02-0.11
			c-0.05,0.12-0.1,0.24-0.15,0.36c0.07-0.16,0.13-0.1-0.12,0.13c-0.06,0.05-0.35,0.22-0.12,0.12c-0.12,0.05-0.24,0.1-0.36,0.15
			c0.05-0.02,0.1-0.03,0.16-0.04c-0.13,0.02-0.27,0.04-0.4,0.05c0.06-0.01,0.11-0.01,0.17,0c-0.13-0.02-0.27-0.04-0.4-0.05
			c0.06,0.01,0.11,0.02,0.16,0.04c-0.12-0.05-0.24-0.1-0.36-0.15c0.16,0.07,0.1,0.13-0.11-0.11c-0.05-0.07-0.1-0.14-0.16-0.2
			c0.02,0.04,0.04,0.07,0.06,0.11c-0.05-0.12-0.1-0.24-0.15-0.36c0.02,0.06,0.04,0.12,0.05,0.18c-0.02-0.13-0.04-0.27-0.05-0.4
			c0.01,0.09,0.01,0.17,0.01,0.26c0.02-0.13,0.04-0.27,0.05-0.4c-0.01,0.09-0.03,0.17-0.06,0.26c0.05-0.12,0.1-0.24,0.15-0.36
			c-0.02,0.05-0.08,0.12-0.09,0.17c0.15-0.19,0.19-0.24,0.11-0.15c-0.03,0.03-0.05,0.06-0.08,0.08c-0.01-0.02,0.36-0.23,0.05-0.06
			c-0.07,0.04-0.14,0.07-0.21,0.1c0.12-0.05,0.24-0.1,0.36-0.15c-0.21,0.08-0.42,0.14-0.64,0.17c0.13-0.02,0.27-0.04,0.4-0.05
			c-0.27,0.03-0.53,0.03-0.8,0c0.13,0.02,0.27,0.04,0.4,0.05c-0.26-0.04-0.52-0.11-0.77-0.21c0.12,0.05,0.24,0.1,0.36,0.15
			c-0.21-0.09-0.4-0.19-0.59-0.31c-0.04-0.02-0.07-0.05-0.11-0.08c-0.22-0.15,0.23,0.19,0.12,0.09c-0.09-0.07-0.17-0.15-0.25-0.22
			c-0.07-0.07-0.14-0.14-0.21-0.22c-0.03-0.04-0.18-0.23-0.01,0c0.17,0.22,0.03,0.04,0-0.01c-0.13-0.18-0.23-0.38-0.32-0.58
			c0.05,0.12,0.1,0.24,0.15,0.36c-0.1-0.25-0.17-0.5-0.21-0.77c0.02,0.13,0.04,0.27,0.05,0.4c-0.02-0.18-0.03-0.36-0.02-0.54
			c0.04-0.78-0.72-1.53-1.5-1.5C893.84,324.12,893.23,324.74,893.18,325.58L893.18,325.58z"/>
	</g>
</g>
<g>
	<g>
		<path class="st2" d="M894.2,326.34c1.93,0,1.93-3,0-3C892.27,323.34,892.27,326.34,894.2,326.34L894.2,326.34z"/>
	</g>
</g>
<g>
	<g>
		<path class="st2" d="M900.92,325.66c2.42-10.65,6.37-20.88,11.75-30.39c0.61-1.08-0.41-2.63-1.69-2.2
			c-2.66,0.89-3.83,3.43-5.07,5.74c-1.6,2.98-3.12,6.01-4.58,9.06c-1.41,2.96-2.77,5.94-4.03,8.96c-1.29,3.09-2.19,6.23-1.58,9.59
			c0.34,1.9,3.24,1.09,2.89-0.8c-0.52-2.85,0.61-5.7,1.7-8.28c1.14-2.68,2.35-5.33,3.6-7.96c1.22-2.56,2.49-5.09,3.81-7.6
			c0.63-1.2,1.25-2.41,1.93-3.58c0.51-0.89,1.1-1.89,2.12-2.24c-0.56-0.73-1.13-1.47-1.69-2.2c-5.5,9.72-9.58,20.21-12.05,31.1
			C897.6,326.75,900.49,327.55,900.92,325.66L900.92,325.66z"/>
	</g>
</g>
<g>
	<g>
		<path class="st2" d="M917.81,289.99c7.02-9.4,14.19-18.99,23.63-26.13c1.51-1.14,0.06-3.73-1.51-2.59
			c-2.19,1.59-4.39,3.12-6.81,4.35c-2.41,1.23-4.42,2.63-6.34,4.53c-4.04,3.99-8.06,8.02-12.08,12.02
			c-1.37,1.36,0.75,3.49,2.12,2.12c3.92-3.9,7.84-7.81,11.77-11.71c1.85-1.84,3.72-3.2,6.05-4.38c2.42-1.23,4.62-2.76,6.81-4.35
			c-0.5-0.86-1.01-1.73-1.51-2.59c-9.88,7.48-17.35,17.36-24.7,27.21C914.06,290.02,916.66,291.52,917.81,289.99L917.81,289.99z"/>
	</g>
</g>
<g>
	<g>
		<path class="st2" d="M910.84,292.51c2.25-1.9,4.11-4.3,5.37-6.96c0.34-0.71,0.22-1.65-0.54-2.05c-0.67-0.35-1.69-0.22-2.05,0.54
			c-0.3,0.62-0.62,1.23-0.98,1.82c-0.18,0.3-0.38,0.6-0.58,0.89c-0.09,0.14-0.19,0.27-0.29,0.41c-0.05,0.08-0.11,0.15-0.16,0.22
			c-0.03,0.04-0.22,0.29-0.09,0.11c0.12-0.16-0.03,0.04-0.05,0.07c-0.06,0.07-0.12,0.15-0.17,0.22c-0.11,0.13-0.21,0.26-0.32,0.38
			c-0.23,0.27-0.47,0.53-0.71,0.78c-0.49,0.51-1.01,0.99-1.55,1.45c-0.6,0.51-0.56,1.61,0,2.12
			C909.36,293.1,910.19,293.05,910.84,292.51L910.84,292.51z"/>
	</g>
</g>
<g>
	<g>
		<path class="st2" d="M910.47,293.09c2.27-2.66,4.16-5.62,5.55-8.83c0.31-0.72,0.24-1.64-0.54-2.05c-0.65-0.34-1.72-0.23-2.05,0.54
			c-0.66,1.52-1.42,2.99-2.3,4.4c-0.42,0.68-0.87,1.35-1.34,2c-0.12,0.16-0.24,0.32-0.36,0.48c-0.02,0.03-0.24,0.32-0.16,0.21
			c0.07-0.09-0.1,0.12-0.11,0.14c-0.27,0.33-0.54,0.66-0.81,0.99c-0.51,0.6-0.63,1.54,0,2.12
			C908.9,293.61,909.92,293.73,910.47,293.09L910.47,293.09z"/>
	</g>
</g>
<g>
	<g>
		<path class="st2" d="M923.31,269.77c-8.39,6.96-12.78,17.2-17.69,26.65c-0.89,1.71,1.7,3.23,2.59,1.51
			c4.79-9.23,9.02-19.24,17.22-26.04C926.92,270.66,924.78,268.55,923.31,269.77L923.31,269.77z"/>
	</g>
</g>
<g>
	<g>
		<path class="st2" d="M934.5,269.82c-3.71,2.6-7.42,5.2-11.12,7.8c-0.66,0.46-0.97,1.31-0.54,2.05c0.38,0.66,1.39,1.01,2.05,0.54
			c3.71-2.6,7.42-5.2,11.12-7.8c0.66-0.46,0.97-1.31,0.54-2.05C936.17,269.7,935.17,269.35,934.5,269.82L934.5,269.82z"/>
	</g>
</g>
<g>
	<g>
		<path class="st2" d="M956.39,252.85c-14.7,12.89-28.16,27.15-40.17,42.57c0.84,0.22,1.67,0.44,2.51,0.66
			c-0.64-1.84-0.71-3.66-0.17-5.53c0.45-1.59-2-2.73-2.74-1.16c-0.72,1.53-1.45,3.07-2.17,4.6c-0.69,1.46,1.1,3.12,2.36,1.82
			c10.88-11.28,21.77-22.56,32.65-33.84c1.37-1.42-0.65-3.31-2.12-2.12c-5.94,4.79-11.95,9.49-17.76,14.43
			c-5.47,4.65-10.63,9.63-14.93,15.4c-1.04,1.4,1.17,2.96,2.36,1.82c3.14-3.01,6.27-6.01,9.41-9.02c1.4-1.34-0.71-3.43-2.12-2.12
			c-4.49,4.17-8.98,8.35-13.47,12.52c0.84,0.49,1.67,0.97,2.51,1.46c1.23-3.61,5.36-5.28,8.37-7.11c3.86-2.34,7.34-5.28,10.31-8.67
			c1.27-1.44-0.84-3.57-2.12-2.12c-3.17,3.6-6.85,6.55-10.99,8.95c-3.47,2.01-7.09,4.14-8.46,8.15c-0.51,1.49,1.47,2.42,2.51,1.46
			c4.49-4.17,8.98-8.35,13.47-12.52c-0.71-0.71-1.41-1.41-2.12-2.12c-3.14,3.01-6.27,6.01-9.41,9.02c0.79,0.61,1.57,1.21,2.36,1.82
			c4.22-5.67,9.42-10.53,14.8-15.08c5.71-4.83,11.6-9.45,17.42-14.14c-0.71-0.71-1.41-1.41-2.12-2.12
			c-10.88,11.28-21.77,22.56-32.65,33.84c0.79,0.61,1.57,1.21,2.36,1.82c0.72-1.53,1.45-3.07,2.17-4.6
			c-0.91-0.39-1.83-0.77-2.74-1.16c-0.67,2.35-0.62,4.81,0.17,7.12c0.33,0.94,1.76,1.62,2.51,0.66
			c12.02-15.42,25.48-29.68,40.17-42.57C959.96,253.7,957.83,251.58,956.39,252.85L956.39,252.85z"/>
	</g>
</g>
<g>
	<g>
		<path class="st2" d="M949.04,260.39c-4.19,3.41-8.37,6.82-12.56,10.22c-0.63,0.51-0.53,1.59,0,2.12c0.62,0.62,1.49,0.51,2.12,0
			c4.19-3.41,8.37-6.82,12.56-10.22c0.63-0.51,0.53-1.59,0-2.12C950.54,259.77,949.67,259.88,949.04,260.39L949.04,260.39z"/>
	</g>
</g>
<g>
	<g>
		<path class="st2" d="M945.01,264.29c-7.12,6.48-13.82,13.42-20.05,20.76c-1.24,1.46,0.87,3.6,2.12,2.12
			c6.23-7.34,12.93-14.28,20.05-20.76C948.56,265.11,946.44,263,945.01,264.29L945.01,264.29z"/>
	</g>
</g>
<g>
	<g>
		<path class="st2" d="M931.65,277.96c-2.36,2.29-4.17,5.06-6.04,7.75c-1.74,2.51-3.62,5.05-6.19,6.78
			c-1.59,1.07-0.09,3.67,1.51,2.59c5.64-3.79,8.06-10.38,12.83-15C935.16,278.73,933.04,276.61,931.65,277.96L931.65,277.96z"/>
	</g>
</g>
<g>
	<g>
		<path class="st2" d="M919.4,292.22c-2.55,2.92-4.94,5.98-7.15,9.17c-0.45,0.65-0.14,1.69,0.54,2.05c0.77,0.4,1.57,0.15,2.05-0.54
			c2.11-3.05,4.23-5.75,6.68-8.56c0.52-0.59,0.62-1.55,0-2.12C920.95,291.7,919.95,291.58,919.4,292.22L919.4,292.22z"/>
	</g>
</g>
<g>
	<g>
		<path class="st2" d="M919.22,292.49c-2.28,2.44-4.83,4.78-6.77,7.51c-1.92,2.69-2.8,6.07-4.14,9.06
			c-2.8,6.25-6.31,12.15-9.81,18.03c-0.99,1.66,1.6,3.17,2.59,1.51c3.42-5.75,6.84-11.51,9.62-17.6c1.31-2.87,2.18-6.07,3.85-8.76
			c0.85-1.37,2.01-2.51,3.1-3.68c1.23-1.31,2.45-2.62,3.68-3.94C922.66,293.2,920.54,291.07,919.22,292.49L919.22,292.49z"/>
	</g>
</g>
<g>
	<g>
		<path class="st2" d="M904.44,319.87c1.86-3.91,3.73-7.81,5.59-11.72c0.92-1.92,1.83-3.84,2.75-5.76c0.86-1.8,1.65-3.71,2.93-5.26
			c1.22-1.48-0.89-3.61-2.12-2.12c-2.66,3.23-4.16,7.46-5.95,11.21c-1.93,4.04-3.86,8.08-5.78,12.13
			C901.03,320.09,903.61,321.61,904.44,319.87L904.44,319.87z"/>
	</g>
</g>
<g>
	<g>
		<path class="st2" d="M907.03,309.52c2.17-4.52,4.57-8.93,7.19-13.21c1.01-1.65-1.58-3.16-2.59-1.51
			c-2.62,4.28-5.02,8.69-7.19,13.21c-0.35,0.73-0.2,1.62,0.54,2.05C905.63,310.44,906.68,310.26,907.03,309.52L907.03,309.52z"/>
	</g>
</g>
<g>
	<g>
		<path class="st2" d="M912.65,307.44c4-5.43,8.34-10.6,12.98-15.5c1.33-1.4-0.79-3.53-2.12-2.12c-4.81,5.08-9.3,10.47-13.45,16.11
			c-0.48,0.65-0.11,1.67,0.54,2.05C911.36,308.43,912.17,308.1,912.65,307.44L912.65,307.44z"/>
	</g>
</g>
<g>
	<g>
		<path class="st2" d="M927.24,290.11c1.24-2.34,2.49-4.68,3.73-7.02c0.37-0.69,0.2-1.66-0.54-2.05c-0.69-0.37-1.66-0.2-2.05,0.54
			c-1.24,2.34-2.49,4.68-3.73,7.02c-0.37,0.69-0.2,1.66,0.54,2.05C925.88,291.02,926.85,290.85,927.24,290.11L927.24,290.11z"/>
	</g>
</g>
<g>
	<g>
		<path class="st2" d="M925.16,291.54c1.93,0,1.93-3,0-3C923.23,288.54,923.23,291.54,925.16,291.54L925.16,291.54z"/>
	</g>
</g>
<g>
	<g>
		<path class="st2" d="M951.86,261.78c0.91-1.1,1.88-2.15,2.92-3.13c0.51-0.48,1.03-0.94,1.56-1.38c0.27-0.23,0.55-0.45,0.83-0.67
			c0.22-0.18-0.14,0.1,0.01-0.01c0.08-0.06,0.15-0.11,0.22-0.17c0.15-0.11,0.3-0.22,0.45-0.33c0.33-0.24,0.58-0.5,0.69-0.9
			c0.1-0.36,0.05-0.84-0.15-1.16c-0.4-0.63-1.37-1.03-2.05-0.54c-2.45,1.78-4.68,3.83-6.61,6.16c-0.26,0.31-0.44,0.64-0.44,1.06
			c0,0.37,0.16,0.81,0.44,1.06C950.29,262.29,951.32,262.43,951.86,261.78L951.86,261.78z"/>
	</g>
</g>
<g>
	<g>
		<path class="st2" d="M912.21,269.96c-5.7,7.11-11.64,14.09-16.87,21.56c-4.84,6.91-8.93,14.51-10.45,22.89
			c-0.34,1.89,2.55,2.7,2.89,0.8c1.48-8.15,5.44-15.45,10.15-22.17c5.08-7.26,10.86-14.05,16.4-20.96
			C915.53,270.59,913.42,268.46,912.21,269.96L912.21,269.96z"/>
	</g>
</g>
<g>
	<g>
		<path class="st2" d="M911.87,270.32c-4.7,8.87-10.35,17.21-16.9,24.82c-1.25,1.46,0.86,3.59,2.12,2.12
			c6.71-7.81,12.55-16.33,17.37-25.43C915.36,270.13,912.77,268.62,911.87,270.32L911.87,270.32z"/>
	</g>
</g>
<g>
	<g>
		<path class="st2" d="M906.32,286.73c1.13-1.73,1.98-3.66,2.49-5.66c0.2-0.76-0.25-1.66-1.05-1.85c-0.78-0.18-1.64,0.23-1.85,1.05
			c-0.12,0.46-0.25,0.91-0.4,1.35c-0.08,0.24-0.17,0.47-0.26,0.71c-0.04,0.11-0.12,0.23-0.14,0.35c0.09-0.21,0.1-0.25,0.04-0.1
			c-0.02,0.04-0.04,0.09-0.06,0.13c-0.39,0.87-0.85,1.71-1.37,2.51c-0.43,0.66-0.15,1.69,0.54,2.05
			C905.02,287.67,905.86,287.43,906.32,286.73L906.32,286.73z"/>
	</g>
</g>
<g>
	<g>
		<path class="st2" d="M907.79,285.07c1.38-2.36,2.14-5.03,2.22-7.75c0.03-0.79-0.71-1.54-1.5-1.5c-0.83,0.04-1.47,0.66-1.5,1.5
			c-0.01,0.31-0.03,0.61-0.06,0.92c-0.01,0.14-0.02,0.29-0.05,0.43c0.09-0.39-0.02,0.13-0.03,0.21c-0.09,0.56-0.22,1.12-0.38,1.67
			c-0.08,0.28-0.17,0.55-0.26,0.82c-0.05,0.15-0.11,0.31-0.17,0.46c-0.03,0.07-0.16,0.42-0.04,0.1c-0.22,0.57-0.53,1.12-0.83,1.64
			c-0.4,0.68-0.18,1.67,0.54,2.05C906.46,285.99,907.37,285.8,907.79,285.07L907.79,285.07z"/>
	</g>
</g>
<path class="st1" d="M1239.5,335.5c0,0-58-1-61-9c0,0-64-29-67-19l-54,3c0,0-74,37-59,48c0,0,5,15,56-23c0,0,38-23,52-21
	c0,0-75,15-97,83c0,0-2,7,10,0c0,0,34-42,85-53c0,0-91,38-87,65c0,0,4,11,20-4c0,0,74-46,80-39c0,0-70,30-62,47c0,0,6,12,45-13
	c0,0,31-6,31-8c0-1.93,33.55,20.37,63.77,16.52c1.08-0.14,2.16-0.31,3.23-0.52c31-6,41-3,41-3S1268.5,373.5,1239.5,335.5z"/>
<path class="st0" d="M748.5,235.5c0,0-1-25-34-13s0,23,0,23s37,13,42,0s-40-10-40-10s-23,11,0,30s40,5,40,5s11-16-28-16
	c0,0-41,11,0,34"/>
<path class="st0" d="M884.68,494.52C947,520,1008,567,1022,638c9,50-25,95-67,117c-1,1-2,2-3,3c-15,7-32,14-48,8c-1-1-3-2-5-3
	c-11-6-15-18-18-30c-3-19-3-40,13-54c22-19,52-18,79-15c16,2,31,7,46,14c5,3,10,6,15,9c12,9,21,19,27,32c1,2,2,5,3,7
	c17,62-32,119-87,140c-36,13-71,25-106,42c-17,9-33,16-47,29c-6,5-12,11-12,19c0,5,3,9,7,12c16,10,34,13,51,19c3,1,6,3,8.64,3.54"/>
<path class="st0" d="M1072.5,1263.5"/>
</svg>
