<?xml version="1.0" encoding="utf-8"?>
<!-- Generator: Adobe Illustrator 24.2.0, SVG Export Plug-In . SVG Version: 6.00 Build 0)  -->
<svg version="1.1" id="Layer_1" xmlns="http://www.w3.org/2000/svg" xmlns:xlink="http://www.w3.org/1999/xlink" x="0px" y="0px"
	 viewBox="0 0 1920 2400" style="enable-background:new 0 0 1920 2400;" xml:space="preserve">
<style type="text/css">
	.st0{fill:none;stroke:#000000;stroke-width:5;stroke-miterlimit:10;}
</style>
<path class="st0" d="M1387.3,279.1c0,0,21.7-51.8,4.3-83c-0.1-0.1-0.1-0.2-0.2-0.3c-1.4-1.9-16.7-24.9,0.5-72.7
	c0.5-1.4,0-2.9-1.2-3.6c-7.1-4-30.3-13.4-38,29c0,0.2-0.1,0.4-0.1,0.6c0,3.6-0.2,40.1-4.5,40.6c-3.5,0.4-4.2,3.9-4.4,5.4
	c0,0.6,0,1.1,0.3,1.6c0.6,1.2,2.2,3.4,6.1,2.9c0.2,0,0.3-0.1,0.5-0.1c0.9-0.3,4.1-1.6,3.4-4.8c-0.1-0.3-0.2-0.6-0.3-0.8
	c-0.8-1.3-3.6-4.7-12.7-7.1c-0.3-0.1-0.6-0.2-0.9-0.5c-0.7-0.6-1.9-1.9-3-4.7c-0.1-0.2-0.2-0.4-0.3-0.6l-77.1-116.4
	c-0.2-0.2-0.3-0.4-0.5-0.6c-2.8-2.3-24.2-18.8-24.4,9.8c0,0.5,0.1,1,0.3,1.5c4,7.7,41.3,79.4,34.3,77.7c0,0-4,1.4-2.5,7.5
	c0.1,0.2,0.2,0.5,0.3,0.7c0.7,1.3,3.6,6.1,6.9,5.9c0.8-0.1,1.5-0.6,1.9-1.4c0.6-1.2,1.3-3.4-0.3-5.7c0,0-1.5-4.2-10.4-6.8
	c-0.4-0.1-0.7-0.3-1-0.6l-69.6-66.4c-0.2-0.2-0.4-0.3-0.6-0.4c-3.2-1.7-29.2-14.7-21.6,11.7c0.1,0.4,0.3,0.8,0.6,1.1
	c6.2,7,79,89.1,72.3,94.2c0,0-4.6,7.2-0.2,9c0,0,3.4,0.9,4.9-1.3c0.6-0.9,0.6-2.2,0.1-3.1c-1-1.8-3.6-4.6-10-4.6c-0.1,0-0.2,0-0.3,0
	c-0.7,0.1-4,0.4-5.3-0.7c0,0-72.5-57.5-83.5-58.7c0,0-33.7-8-15.1,13.3c0.1,0.1,0.2,0.2,0.4,0.4c4.4,3.4,80.6,63.4,78.7,70.2
	c0,0-0.8,2.6,0.1,5c0.2,0.7,0.7,1.2,1.3,1.4c1.3,0.6,4,1.6,6.2,1c1.1-0.3,1.9-1.2,2-2.5c0.1-1.4-0.9-3.3-6-4.1c-0.3-0.1-0.6,0-1,0.1
	c-2.1,0.6-10.5,2.7-11.9,1.4c-1.6-1.5-61.8-28.2-76.7-27.8c0,0-37.5-1.8-9.7,16.9c0.1,0.1,0.2,0.1,0.4,0.2
	c4.4,2,85.1,38.4,93.5,39.9c0.1,0,0.2,0,0.3,0.1c1,0.3,6.3,2.2,8.5,8c0.1,0.2,0.2,0.4,0.3,0.6c3.1,4.6,46.4,66.9,94.1,63.6
	c0.1,0,0.1,0,0.2,0c2.3-0.4,41.2-6.7,66.2-36.2c0-0.1,0.1-0.1,0.1-0.2l12.2-16.3c0.1-0.1,0.1-0.1,0.2-0.2
	c1.9-2.1,34.5-36.6,51.3,9.9c0,0,30.3,83.6-3.1,151.5c-0.2,0.5-0.6,0.8-1,1.1c-4,2.6-26.3,15.6-38.9-11.2c-0.2-0.5-0.3-1.1-0.3-1.7
	c0.6-4.3,5.2-21.9,42.7-20.8c0.1,0,0.3,0,0.4,0c5.4,1.1,116.9,25.6,49.3,94.1c-0.1,0.1-0.2,0.2-0.3,0.3c-3.5,2.7-69.6,54-40.3,100.7
	c0,0.1,0.1,0.1,0.1,0.2c2.1,2.9,52.7,74.1-15.5,92.8c0,0-421,113.3-424.2,178.6c-3.2,65.3,17.5,77.3-6.4,94.7
	c-23.9,17.3-8,16-63.7,17.3H573.3c-0.1,0-0.2,0-0.3,0c-3.6-0.4-87.6-9.1-92.3,60c0,0-29.7,273.1-10.2,298c0.4,0.5,0.6,1.1,0.6,1.8
	c0.2,8.5,4.8,64.7,82.9,69.6c0,0,759.3,52.5,775.9,26c0.3-0.5,0.8-0.8,1.3-0.9c6.7-2,42.7-14.8,35.6-58.2c0-0.1,0-0.2-0.1-0.3
	c-0.7-2.8-12.7-55.7-11.1-281.3c0,0,1.6-130.7-127.5-114.7c0,0-143.4,21.3-388.7-24c-0.1,0-0.2,0-0.3,0c-7.9-0.6-385-27.1-384,53.2
	c0,0.1,0,0.2,0,0.3c-1,9.2-44.9,424.3,68.5,433.4c114.7,9.2,811.2,28.1,846.2,0c33.4-26.8,22-71.5,20.8-75.8
	c-0.1-0.2-0.1-0.5-0.1-0.7c-0.5-13.3-12.9-374.6-20.7-386.4c-8-12-66.9-38.7-102-25.3c-35.1,13.3-141.8,53.3-425.5,36
	c-272.2-16.6-333.1,23.2-337.6,26.5c-0.2,0.1-0.4,0.2-0.6,0.3c-4.6,1.7-66,31.5-50.7,398c0,0.4,0.1,0.9,0.3,1.3
	c2.5,4.8,21.8,34.7,114.4,11.4c0,0,0.1,0,0.1,0c4.8-0.9,264.9-47.4,323.4-21.4c0.1,0,0.1,0.1,0.2,0.1c3.7,2,115.7,64.3,0.2,167.7
	c-0.2,0.2-0.4,0.3-0.5,0.4c-7.1,3.6-144.7,75.2-84.2,201.2"/>
</svg>
